REM DIRINDEX 1\2,1\4,1\3\5,1\3\6,1\3\7
REM DIRNAME folder01,folder02,folder03,folder04,folder05,folder06,folder07
TITLE ""
FILE "CD2Track37.mp3" MP3
  TRACK 01 AUDIO
    TITLE "0:"
    INDEX 01 00:00:00
  TRACK 02 AUDIO
    TITLE "5:cjc082_2006"
    INDEX 01 00:00:27
  TRACK 03 AUDIO
    TITLE "0:"
    INDEX 01 00:01:34
  TRACK 04 AUDIO
    TITLE "6:cjc082_2007"
    INDEX 01 00:02:10
  TRACK 05 AUDIO
    TITLE "0:"
    INDEX 01 00:04:23
  TRACK 06 AUDIO
    TITLE "5:cjc082_2008"
    INDEX 01 00:04:68
  TRACK 07 AUDIO
    TITLE "0:"
    INDEX 01 00:06:02
  TRACK 08 AUDIO
    TITLE "6:cjc082_2009"
    INDEX 01 00:06:49
  TRACK 09 AUDIO
    TITLE "0:"
    INDEX 01 00:08:73
  TRACK 10 AUDIO
    TITLE "5:cjc082_2010"
    INDEX 01 00:09:49
  TRACK 11 AUDIO
    TITLE "0:"
    INDEX 01 00:11:17
  TRACK 12 AUDIO
    TITLE "6:cjc082_2011"
    INDEX 01 00:11:66
  TRACK 13 AUDIO
    TITLE "0:"
    INDEX 01 00:13:04
  TRACK 14 AUDIO
    TITLE "5:cjc082_2012"
    INDEX 01 00:13:53
  TRACK 15 AUDIO
    TITLE "0:"
    INDEX 01 00:14:53
  TRACK 16 AUDIO
    TITLE "6:cjc082_2013"
    INDEX 01 00:15:32
  TRACK 17 AUDIO
    TITLE "0:"
    INDEX 01 00:17:47
  TRACK 18 AUDIO
    TITLE "5:cjc082_2014"
    INDEX 01 00:18:19
  TRACK 19 AUDIO
    TITLE "0:"
    INDEX 01 00:19:44
  TRACK 20 AUDIO
    TITLE "6:cjc082_2015"
    INDEX 01 00:20:18
  TRACK 21 AUDIO
    TITLE "0:"
    INDEX 01 00:23:16
  TRACK 22 AUDIO
    TITLE "5:cjc082_2016"
    INDEX 01 00:23:67
  TRACK 23 AUDIO
    TITLE "0:"
    INDEX 01 00:25:17
  TRACK 24 AUDIO
    TITLE "6:cjc082_2017"
    INDEX 01 00:25:64
  TRACK 25 AUDIO
    TITLE "0:"
    INDEX 01 00:27:59
  TRACK 26 AUDIO
    TITLE "5:cjc082_2018"
    INDEX 01 00:28:29
  TRACK 27 AUDIO
    TITLE "0:"
    INDEX 01 00:29:38
  TRACK 28 AUDIO
    TITLE "6:cjc082_2019"
    INDEX 01 00:30:12
  TRACK 29 AUDIO
    TITLE "0:"
    INDEX 01 00:31:02
  TRACK 30 AUDIO
    TITLE "5:cjc082_2020"
    INDEX 01 00:31:53
  TRACK 31 AUDIO
    TITLE "0:"
    INDEX 01 00:32:70
  TRACK 32 AUDIO
    TITLE "6:cjc082_2021"
    INDEX 01 00:33:48
  TRACK 33 AUDIO
    TITLE "0:"
    INDEX 01 00:35:02
  TRACK 34 AUDIO
    TITLE "5:cjc082_2022"
    INDEX 01 00:35:49
  TRACK 35 AUDIO
    TITLE "0:"
    INDEX 01 00:36:74
  TRACK 36 AUDIO
    TITLE "6:cjc082_2023"
    INDEX 01 00:37:50
  TRACK 37 AUDIO
    TITLE "0:"
    INDEX 01 00:38:71
  TRACK 38 AUDIO
    TITLE "5:cjc082_2024"
    INDEX 01 00:39:39
  TRACK 39 AUDIO
    TITLE "0:"
    INDEX 01 00:41:02
  TRACK 40 AUDIO
    TITLE "6:cjc082_2025"
    INDEX 01 00:41:47
  TRACK 41 AUDIO
    TITLE "0:"
    INDEX 01 00:43:40
  TRACK 42 AUDIO
    TITLE "5:cjc082_2026"
    INDEX 01 00:44:12
  TRACK 43 AUDIO
    TITLE "0:"
    INDEX 01 00:45:28
  TRACK 44 AUDIO
    TITLE "6:cjc082_2027"
    INDEX 01 00:46:04
  TRACK 45 AUDIO
    TITLE "0:"
    INDEX 01 00:47:62
  TRACK 46 AUDIO
    TITLE "5:cjc082_2028"
    INDEX 01 00:48:30
  TRACK 47 AUDIO
    TITLE "0:"
    INDEX 01 00:49:55
  TRACK 48 AUDIO
    TITLE "6:cjc082_2029"
    INDEX 01 00:50:27
  TRACK 49 AUDIO
    TITLE "0:"
    INDEX 01 00:51:63
  TRACK 50 AUDIO
    TITLE "5:cjc082_2030"
    INDEX 01 00:52:34
  TRACK 51 AUDIO
    TITLE "0:"
    INDEX 01 00:53:47
  TRACK 52 AUDIO
    TITLE "6:cjc082_2031"
    INDEX 01 00:54:21
  TRACK 53 AUDIO
    TITLE "0:"
    INDEX 01 00:55:51
  TRACK 54 AUDIO
    TITLE "5:cjc082_2032"
    INDEX 01 00:56:22
  TRACK 55 AUDIO
    TITLE "0:"
    INDEX 01 00:57:58
  TRACK 56 AUDIO
    TITLE "6:cjc082_2033"
    INDEX 01 00:58:28
  TRACK 57 AUDIO
    TITLE "0:"
    INDEX 01 00:59:61
  TRACK 58 AUDIO
    TITLE "5:cjc082_2034"
    INDEX 01 01:00:33
  TRACK 59 AUDIO
    TITLE "0:"
    INDEX 01 01:01:56
  TRACK 60 AUDIO
    TITLE "6:cjc082_2035"
    INDEX 01 01:02:24
  TRACK 61 AUDIO
    TITLE "0:"
    INDEX 01 01:03:55
  TRACK 62 AUDIO
    TITLE "7:cjc082_2036"
    INDEX 01 01:05:21
  TRACK 63 AUDIO
    TITLE "0:"
    INDEX 01 01:15:62
